{"title":"Legacy.2010.DvDRip.x264.Feel-Free","uid":6047217,"size":938097109,"categoryP":"video","categoryS":"movies","magnet":"?xt=urn:btih:03f99e3c0b5edd3c7bd569ffa75866b946728bd7&amp;dn=Legacy.2010.DvDRip.x264.Feel-Free&amp;tr=udp%3A%2F%2Ftracker.openbittorrent.com%3A80&amp;tr=udp%3A%2F%2Fopen.demonii.com%3A1337&amp;tr=udp%3A%2F%2Ftracker.coppersurfer.tk%3A6969&amp;tr=udp%3A%2F%2Fexodus.desync.com%3A6969","seeders":0,"leechers":0,"uploader":"hiest","files":-1,"time":1292602672,"description":"Genre:Thriller\nLanguage:English\nIMDb:http://www.imdb.com/title/tt1436034/\nSource:NTSC.DVDR\nSubtitles:Romana\n\n\nFormat : Matroska\nFile size : 892 MiB\nDuration : 1h 32mn\nOverall bit rate : 1 344 Kbps\n\n\nVideo\nFormat settings, CABAC : Yes\nFormat settings, ReFrames : 4 frames\nFormat settings, GOP : N=1\nCodec ID : V_MPEG4/ISO/AVC\nDuration : 1h 32mn\nBit rate : 899 Kbps\nWidth : 720 pixels\nHeight : 384 pixels\nDisplay aspect ratio : 1.875\nFrame rate mode : Variable\nFrame rate : 23.976 fps\nColor space : YUV\nChroma subsampling : 4:2:0\nBit depth : 8 bits\nScan type : Progressive\nBits/(Pixel*Frame) : 0.136\nStream size : 577 MiB (65%)\nWriting library : x264\n\n\nAudio\nID : 2\nFormat : AC-3\nFormat/Info : Audio Coding 3\nMode extension : CM (complete main)\nCodec ID : A_AC3\nDuration : 1h 32mn\nBit rate mode : Constant\nBit rate : 448 Kbps\nChannel(s) : 6 channels\nChannel positions : Front: L C R, Side: L R, LFE\nSampling rate : 48.0 KHz\nBit depth : 16 bits\nVideo delay : -1mn 5s\nStream size : 297 MiB (33%)\nLanguage : English\n\n\nPlot:\nBlack Ops operative Malcolm Gray returns home after a botched mission in Eastern Europe. Holed up in a Brooklyn motel room\n\n\n\n\n\n\n\n================================== &lt;a href=&quot;\nhttp://thepiratebay.se/user/hiest&quot; rel=&quot;nofollow&quot; target=&quot;_NEW&quot;&gt;\nhttp://thepiratebay.se/user/hiest&lt;/a&gt;\n==================================","torrent":{"xt":"urn:btih:03f99e3c0b5edd3c7bd569ffa75866b946728bd7","amp;dn":"Legacy.2010.DvDRip.x264.Feel-Free","amp;tr":["udp%3A%2F%2Ftracker.openbittorrent.com%3A80","udp%3A%2F%2Fopen.demonii.com%3A1337","udp%3A%2F%2Ftracker.coppersurfer.tk%3A6969","udp%3A%2F%2Fexodus.desync.com%3A6969"],"infoHash":"03f99e3c0b5edd3c7bd569ffa75866b946728bd7","infoHashBuffer":{"type":"Buffer","data":[3,249,158,60,11,94,221,60,123,213,105,255,167,88,102,185,70,114,139,215]},"announce":[],"urlList":[]}}